<svg width="54" height="58" viewBox="0 0 54 58" fill="none" xmlns="http://www.w3.org/2000/svg">
<path d="M53.9035 11.8436C53.7314 11.2036 53.3116 10.6581 52.7371 10.3273C52.1623 9.99494 51.4788 9.90503 50.8376 10.0771C50.1973 10.2496 49.6517 10.6691 49.3209 11.2435L48.9043 11.9685C48.5085 11.7411 48.0028 11.8749 47.7713 12.2687L45.655 15.8761L44.93 15.4595C44.738 15.3484 44.5093 15.3183 44.2953 15.3761C44.0809 15.4343 43.8987 15.575 43.7884 15.7679C43.5626 16.1662 43.7002 16.6723 44.0968 16.9009L44.8218 17.3175L37.7397 29.5904L35.9899 34.2649L35.1567 35.8227C34.6689 36.6713 34.721 37.7262 35.2901 38.5224L33.4154 40.8218L32.8906 39.5057C32.6539 38.919 32.1059 38.5171 31.4757 38.4679C30.8451 38.4182 30.2409 38.7299 29.9159 39.2722L29.616 39.7803L29.3329 36.4475C29.2678 35.6591 28.6571 35.0253 27.872 34.9301C27.0864 34.8353 26.3427 35.306 26.0917 36.0562L24.042 42.205C23.8988 42.6399 24.1332 43.1086 24.5669 43.2551C24.6482 43.2929 24.7357 43.3157 24.8252 43.3214C25.1832 43.3226 25.5022 43.0944 25.6169 42.7551L27.658 36.6062L27.9497 39.9886C28.0099 40.7103 28.5286 41.3104 29.234 41.474C29.9395 41.6375 30.6693 41.3267 31.0408 40.7054L31.3491 40.1969L31.8658 41.5053C32.0851 42.0565 32.581 42.4499 33.1681 42.5374C33.7552 42.6249 34.3442 42.3934 34.7153 41.93L36.6567 39.4723C36.8715 39.5285 37.0928 39.5566 37.3149 39.5557C38.2079 39.5627 39.037 39.0924 39.4894 38.3222L40.3226 36.9309L43.4971 33.0733L50.6541 20.6503L51.3791 21.0669C51.5723 21.1775 51.7131 21.3602 51.7705 21.5754C51.8282 21.789 51.7981 22.0168 51.6875 22.2084L48.3547 27.9826C48.229 28.1722 48.1863 28.4049 48.2367 28.627C48.2872 28.8487 48.4259 29.0404 48.6212 29.1571C48.8132 29.2686 49.0419 29.2987 49.2558 29.2409C49.4702 29.1828 49.6525 29.042 49.7628 28.8491L53.0955 23.075C53.4279 22.5001 53.5178 21.8167 53.3453 21.1755C53.1728 20.5351 52.7534 19.9896 52.1789 19.6588L51.454 19.2422L53.5369 15.6344C53.7644 15.2386 53.6305 14.7333 53.2371 14.5014L53.6537 13.7764C53.995 13.1926 54.0853 12.4953 53.9035 11.8436ZM50.7623 12.0767C50.8726 11.8839 51.0557 11.7427 51.2709 11.6853C51.4849 11.6324 51.7111 11.6621 51.9039 11.7687C52.0972 11.879 52.2379 12.0621 52.2957 12.2769C52.3486 12.4909 52.3189 12.717 52.2123 12.9099L51.7957 13.6349L50.3458 12.8017L50.7623 12.0767ZM39.406 35.3397L38.9894 35.0981L37.7563 34.3812L38.9394 31.2153L41.5639 32.7315L39.406 35.3397ZM36.9065 37.7474C36.5546 37.5021 36.4463 37.0301 36.6567 36.6558L37.0733 35.9313L38.5228 36.7645L38.1062 37.4809C37.9895 37.6835 37.7934 37.8275 37.5651 37.8784C37.3369 37.9288 37.0981 37.8816 36.9065 37.7474ZM42.5138 31.3654L39.631 29.699L46.2966 18.1507L49.1794 19.8171L42.5138 31.3654ZM50.0126 18.3757L47.1297 16.7093L48.7961 13.8265L51.6789 15.4929L50.0126 18.3757Z" fill="#21406C"/>
<path d="M17.1476 37.3353L14.1985 40.2767L12.432 38.5102C12.107 38.1872 11.5822 38.1872 11.2571 38.5102C11.0992 38.6668 11.0106 38.8796 11.0106 39.1017C11.0106 39.3239 11.0992 39.537 11.2571 39.6933L13.0236 41.4597C13.336 41.7697 13.7583 41.9435 14.1985 41.943C14.6411 41.9455 15.0671 41.7718 15.3816 41.4597L18.3225 38.5102C18.6057 38.1795 18.5866 37.6868 18.279 37.3792C17.971 37.0712 17.4784 37.0521 17.1476 37.3353Z" fill="#21406C"/>
<path d="M7.33282 39.5766C7.33282 43.4883 10.5037 46.6587 14.415 46.6587C18.3262 46.6587 21.4971 43.4883 21.4971 39.5766C21.4971 39.1165 21.124 38.7434 20.6639 38.7434C20.2038 38.7434 19.8307 39.1165 19.8307 39.5766C19.8307 42.5676 17.406 44.9923 14.415 44.9923C11.4239 44.9923 8.99921 42.5676 8.99921 39.5766C8.99921 36.5856 11.4239 34.1608 14.415 34.1608C15.5874 34.1576 16.7286 34.538 17.6643 35.2442C18.0325 35.5205 18.5549 35.4456 18.8307 35.0774C19.1069 34.7093 19.0325 34.1873 18.6643 33.9111C16.5183 32.3016 13.6469 32.0429 11.2478 33.2422C8.84827 34.442 7.33282 36.8944 7.33282 39.5766Z" fill="#21406C"/>
<path d="M33.9948 6.66547C34.455 6.66547 34.828 6.29281 34.828 5.83228C34.828 5.37215 34.455 4.99908 33.9948 4.99908H12.3318C11.8717 4.99908 11.4987 5.37215 11.4987 5.83228V9.16504C11.4987 9.62558 11.8717 9.99823 12.3318 9.99823H33.9948C34.455 9.99823 34.828 9.62558 34.828 9.16504C34.828 8.70491 34.455 8.33185 33.9948 8.33185H13.165V6.66547H33.9948Z" fill="#21406C"/>
<path d="M14.8315 11.6647C14.3714 11.6647 13.9983 12.0377 13.9983 12.4979C13.9983 12.9584 14.3714 13.331 14.8315 13.331H31.4953C31.9554 13.331 32.3285 12.9584 32.3285 12.4979C32.3285 12.0377 31.9554 11.6647 31.4953 11.6647H14.8315Z" fill="#21406C"/>
<path d="M36.4945 17.4969H18.1643C17.7042 17.4969 17.3311 17.87 17.3311 18.3301C17.3311 18.7907 17.7042 19.1633 18.1643 19.1633H36.4945C36.9546 19.1633 37.3277 18.7907 37.3277 18.3301C37.3277 17.87 36.9546 17.4969 36.4945 17.4969Z" fill="#21406C"/>
<path d="M28.1625 23.3293C28.1625 22.8692 27.7895 22.4962 27.3294 22.4962H10.6655C10.2054 22.4962 9.83234 22.8692 9.83234 23.3293C9.83234 23.7899 10.2054 24.1625 10.6655 24.1625H27.3294C27.7895 24.1625 28.1625 23.7899 28.1625 23.3293Z" fill="#21406C"/>
<path d="M36.4944 22.4962H30.6621C30.202 22.4962 29.8289 22.8692 29.8289 23.3293C29.8289 23.7899 30.202 24.1625 30.6621 24.1625H36.4944C36.9546 24.1625 37.3276 23.7899 37.3276 23.3293C37.3276 22.8692 36.9546 22.4962 36.4944 22.4962Z" fill="#21406C"/>
<path d="M18.9974 28.3285C19.4576 28.3285 19.8306 27.9558 19.8306 27.4953C19.8306 27.0352 19.4576 26.6621 18.9974 26.6621H10.6655C10.2054 26.6621 9.83234 27.0352 9.83234 27.4953C9.83234 27.9558 10.2054 28.3285 10.6655 28.3285H18.9974Z" fill="#21406C"/>
<path d="M22.3301 28.3285H28.1625C28.6226 28.3285 28.9957 27.9558 28.9957 27.4953C28.9957 27.0352 28.6226 26.6621 28.1625 26.6621H22.3301C21.87 26.6621 21.4969 27.0352 21.4969 27.4953C21.4969 27.9558 21.87 28.3285 22.3301 28.3285Z" fill="#21406C"/>
<g filter="url(#filter0_d_5_280)">
<path d="M41.4936 38.3268C41.0335 38.3268 40.6604 38.6999 40.6604 39.16V47.4919C40.6604 47.9524 40.2874 48.3251 39.8272 48.3251H6.49957C6.03945 48.3251 5.66638 47.9524 5.66638 47.4919V2.49957C5.66638 2.03945 6.03945 1.66638 6.49957 1.66638H39.8272C40.2874 1.66638 40.6604 2.03945 40.6604 2.49957V18.1471C40.6604 18.6073 41.0335 18.9803 41.4936 18.9803C41.9537 18.9803 42.3268 18.6073 42.3268 18.1471V2.49957C42.3268 1.11919 41.2076 0 39.8272 0H6.49957C5.11919 0 4 1.11919 4 2.49957V47.4919C4 48.8727 5.11919 49.9915 6.49957 49.9915H39.8272C41.2076 49.9915 42.3268 48.8727 42.3268 47.4919V39.16C42.3268 38.6999 41.9537 38.3268 41.4936 38.3268Z" fill="#21406C"/>
<path d="M41.1604 39.16C41.1604 38.976 41.3096 38.8268 41.4936 38.8268C41.6776 38.8268 41.8268 38.976 41.8268 39.16V47.4919C41.8268 48.5965 40.9315 49.4915 39.8272 49.4915H6.49957C5.39528 49.4915 4.5 48.5965 4.5 47.4919V2.49957C4.5 1.39534 5.39534 0.5 6.49957 0.5H39.8272C40.9315 0.5 41.8268 1.39534 41.8268 2.49957V18.1471C41.8268 18.3311 41.6776 18.4803 41.4936 18.4803C41.3096 18.4803 41.1604 18.3311 41.1604 18.1471V2.49957C41.1604 1.76331 40.5635 1.16638 39.8272 1.16638H6.49957C5.7633 1.16638 5.16638 1.76331 5.16638 2.49957V47.4919C5.16638 48.2287 5.76346 48.8251 6.49957 48.8251H39.8272C40.5633 48.8251 41.1604 48.2287 41.1604 47.4919V39.16Z" stroke="black"/>
</g>
<defs>
<filter id="filter0_d_5_280" x="0" y="0" width="46.3268" height="57.9915" filterUnits="userSpaceOnUse" color-interpolation-filters="sRGB">
<feFlood flood-opacity="0" result="BackgroundImageFix"/>
<feColorMatrix in="SourceAlpha" type="matrix" values="0 0 0 0 0 0 0 0 0 0 0 0 0 0 0 0 0 0 127 0" result="hardAlpha"/>
<feOffset dy="4"/>
<feGaussianBlur stdDeviation="2"/>
<feComposite in2="hardAlpha" operator="out"/>
<feColorMatrix type="matrix" values="0 0 0 0 0 0 0 0 0 0 0 0 0 0 0 0 0 0 0.25 0"/>
<feBlend mode="normal" in2="BackgroundImageFix" result="effect1_dropShadow_5_280"/>
<feBlend mode="normal" in="SourceGraphic" in2="effect1_dropShadow_5_280" result="shape"/>
</filter>
</defs>
</svg>
